# xmcd
#
# Track frame offsets:
#	150
#	17410
#	36022
#	54785
#	71917
#	91742
#	110035
#	129892
#	149985
#	171347
#
# Disc length: 2603
#
# Revision: 5
# Processed by: cddbd v1.5.1PL0 Copyright (c) Steve Scherf et al.
# Submitted via: VisiTrax 2.9.5.181 - For more info visit www.synapsa.com
# Normalized: r4:DSETVAR1
#
DISCID=870a290a
DTITLE=Various Artist - Steppin' Country (Extended Club Mixes)
DYEAR=1993
DGENRE=Country
TTITLE0=Collin Raye - I Want You Bad (And That Ain't Good)
TTITLE1=Dolly Parton - Romeo
TTITLE2=Ricky Van Shelton - Heartache Big As Texas
TTITLE3=Joe Diffie - Honky Tonk Attitude
TTITLE4=Mary Chapin Carpenter - Down At The Twist And Shout
TTITLE5=Ricy Van Shelton - Wild Man
TTITLE6=Gibson Miller Band - Texas Tattoo
TTITLE7=Mary Chapin Carpenter - I Feel Lucky
TTITLE8=Larry Boone - Get In Line
TTITLE9=Stacy Dean Campbell - Rosalee
EXTD=YEAR: 1993
EXTT0=
EXTT1=
EXTT2=
EXTT3=
EXTT4=
EXTT5=
EXTT6=
EXTT7=
EXTT8=
EXTT9=
PLAYORDER=
